<?xml version="1.0" encoding="UTF-8"?><svg xmlns="http://www.w3.org/2000/svg" width="80" height="80" viewBox="0 0 80 80" shape-rendering="crispEdges" role="img" aria-label="ZIDANE"><title>ZIDANE</title><rect x="0" y="0" width="5" height="5" fill="rgb(0,4,18)"/><rect x="5" y="0" width="5" height="5" fill="rgb(0,4,18)"/><rect x="10" y="0" width="5" height="5" fill="rgb(0,4,18)"/><rect x="15" y="0" width="5" height="5" fill="rgb(0,4,18)"/><rect x="20" y="0" width="5" height="5" fill="rgb(0,4,18)"/><rect x="25" y="0" width="5" height="5" fill="rgb(0,4,18)"/><rect x="30" y="0" width="5" height="5" fill="rgb(0,4,18)"/><rect x="35" y="0" width="5" height="5" fill="rgb(0,4,18)"/><rect x="40" y="0" width="5" height="5" fill="rgb(0,4,18)"/><rect x="45" y="0" width="5" height="5" fill="rgb(0,4,18)"/><rect x="50" y="0" width="5" height="5" fill="rgb(0,4,18)"/><rect x="55" y="0" width="5" height="5" fill="rgb(0,4,18)"/><rect x="60" y="0" width="5" height="5" fill="rgb(0,4,18)"/><rect x="65" y="0" width="5" height="5" fill="rgb(0,4,18)"/><rect x="70" y="0" width="5" height="5" fill="rgb(0,4,18)"/><rect x="75" y="0" width="5" height="5" fill="rgb(0,4,18)"/><rect x="0" y="5" width="5" height="5" fill="rgb(0,4,18)"/><rect x="5" y="5" width="5" height="5" fill="rgb(0,4,18)"/><rect x="10" y="5" width="5" height="5" fill="rgb(0,4,18)"/><rect x="15" y="5" width="5" height="5" fill="rgb(0,4,18)"/><rect x="20" y="5" width="5" height="5" fill="rgb(176,132,93)"/><rect x="25" y="5" width="5" height="5" fill="rgb(176,132,93)"/><rect x="30" y="5" width="5" height="5" fill="rgb(176,132,93)"/><rect x="35" y="5" width="5" height="5" fill="rgb(236,177,125)"/><rect x="40" y="5" width="5" height="5" fill="rgb(224,168,119)"/><rect x="45" y="5" width="5" height="5" fill="rgb(176,132,93)"/><rect x="50" y="5" width="5" height="5" fill="rgb(176,132,93)"/><rect x="55" y="5" width="5" height="5" fill="rgb(176,132,93)"/><rect x="60" y="5" width="5" height="5" fill="rgb(0,4,18)"/><rect x="65" y="5" width="5" height="5" fill="rgb(0,4,18)"/><rect x="70" y="5" width="5" height="5" fill="rgb(0,4,18)"/><rect x="75" y="5" width="5" height="5" fill="rgb(0,4,18)"/><rect x="0" y="10" width="5" height="5" fill="rgb(0,4,18)"/><rect x="5" y="10" width="5" height="5" fill="rgb(0,4,18)"/><rect x="10" y="10" width="5" height="5" fill="rgb(0,4,18)"/><rect x="15" y="10" width="5" height="5" fill="rgb(180,135,95)"/><rect x="20" y="10" width="5" height="5" fill="rgb(180,135,95)"/><rect x="25" y="10" width="5" height="5" fill="rgb(180,135,95)"/><rect x="30" y="10" width="5" height="5" fill="rgb(220,165,117)"/><rect x="35" y="10" width="5" height="5" fill="rgb(180,135,95)"/><rect x="40" y="10" width="5" height="5" fill="rgb(180,135,95)"/><rect x="45" y="10" width="5" height="5" fill="rgb(180,135,95)"/><rect x="50" y="10" width="5" height="5" fill="rgb(180,135,95)"/><rect x="55" y="10" width="5" height="5" fill="rgb(180,135,95)"/><rect x="60" y="10" width="5" height="5" fill="rgb(180,135,95)"/><rect x="65" y="10" width="5" height="5" fill="rgb(0,4,18)"/><rect x="70" y="10" width="5" height="5" fill="rgb(0,4,18)"/><rect x="75" y="10" width="5" height="5" fill="rgb(0,4,18)"/><rect x="0" y="15" width="5" height="5" fill="rgb(0,4,18)"/><rect x="5" y="15" width="5" height="5" fill="rgb(0,4,18)"/><rect x="10" y="15" width="5" height="5" fill="rgb(0,4,18)"/><rect x="15" y="15" width="5" height="5" fill="rgb(0,4,18)"/><rect x="20" y="15" width="5" height="5" fill="rgb(186,140,99)"/><rect x="25" y="15" width="5" height="5" fill="rgb(186,140,99)"/><rect x="30" y="15" width="5" height="5" fill="rgb(186,140,99)"/><rect x="35" y="15" width="5" height="5" fill="rgb(186,140,99)"/><rect x="40" y="15" width="5" height="5" fill="rgb(186,140,99)"/><rect x="45" y="15" width="5" height="5" fill="rgb(186,140,99)"/><rect x="50" y="15" width="5" height="5" fill="rgb(186,140,99)"/><rect x="55" y="15" width="5" height="5" fill="rgb(186,140,99)"/><rect x="60" y="15" width="5" height="5" fill="rgb(0,4,18)"/><rect x="65" y="15" width="5" height="5" fill="rgb(0,4,18)"/><rect x="70" y="15" width="5" height="5" fill="rgb(0,4,18)"/><rect x="75" y="15" width="5" height="5" fill="rgb(0,4,18)"/><rect x="0" y="20" width="5" height="5" fill="rgb(0,4,18)"/><rect x="5" y="20" width="5" height="5" fill="rgb(0,4,18)"/><rect x="10" y="20" width="5" height="5" fill="rgb(0,4,18)"/><rect x="15" y="20" width="5" height="5" fill="#c8966a"/><rect x="20" y="20" width="5" height="5" fill="#c8966a"/><rect x="25" y="20" width="5" height="5" fill="rgb(12,12,12)"/><rect x="30" y="20" width="5" height="5" fill="#111111"/><rect x="35" y="20" width="5" height="5" fill="#c8966a"/><rect x="40" y="20" width="5" height="5" fill="#c8966a"/><rect x="45" y="20" width="5" height="5" fill="#111111"/><rect x="50" y="20" width="5" height="5" fill="rgb(12,12,12)"/><rect x="55" y="20" width="5" height="5" fill="#c8966a"/><rect x="60" y="20" width="5" height="5" fill="#c8966a"/><rect x="65" y="20" width="5" height="5" fill="rgb(0,4,18)"/><rect x="70" y="20" width="5" height="5" fill="rgb(0,4,18)"/><rect x="75" y="20" width="5" height="5" fill="rgb(0,4,18)"/><rect x="0" y="25" width="5" height="5" fill="rgb(0,4,18)"/><rect x="5" y="25" width="5" height="5" fill="rgb(0,4,18)"/><rect x="10" y="25" width="5" height="5" fill="rgb(0,4,18)"/><rect x="15" y="25" width="5" height="5" fill="rgb(160,120,85)"/><rect x="20" y="25" width="5" height="5" fill="#c8966a"/><rect x="25" y="25" width="5" height="5" fill="#111111"/><rect x="30" y="25" width="5" height="5" fill="#c8966a"/><rect x="35" y="25" width="5" height="5" fill="#c8966a"/><rect x="40" y="25" width="5" height="5" fill="#c8966a"/><rect x="45" y="25" width="5" height="5" fill="#111111"/><rect x="50" y="25" width="5" height="5" fill="#c8966a"/><rect x="55" y="25" width="5" height="5" fill="#c8966a"/><rect x="60" y="25" width="5" height="5" fill="rgb(160,120,85)"/><rect x="65" y="25" width="5" height="5" fill="rgb(0,4,18)"/><rect x="70" y="25" width="5" height="5" fill="rgb(0,4,18)"/><rect x="75" y="25" width="5" height="5" fill="rgb(0,4,18)"/><rect x="0" y="30" width="5" height="5" fill="rgb(0,4,18)"/><rect x="5" y="30" width="5" height="5" fill="rgb(0,4,18)"/><rect x="10" y="30" width="5" height="5" fill="rgb(0,4,18)"/><rect x="15" y="30" width="5" height="5" fill="#c8966a"/><rect x="20" y="30" width="5" height="5" fill="#c8966a"/><rect x="25" y="30" width="5" height="5" fill="#c8966a"/><rect x="30" y="30" width="5" height="5" fill="#c8966a"/><rect x="35" y="30" width="5" height="5" fill="rgb(140,105,74)"/><rect x="40" y="30" width="5" height="5" fill="#c8966a"/><rect x="45" y="30" width="5" height="5" fill="#c8966a"/><rect x="50" y="30" width="5" height="5" fill="#c8966a"/><rect x="55" y="30" width="5" height="5" fill="#c8966a"/><rect x="60" y="30" width="5" height="5" fill="#c8966a"/><rect x="65" y="30" width="5" height="5" fill="rgb(0,4,18)"/><rect x="70" y="30" width="5" height="5" fill="rgb(0,4,18)"/><rect x="75" y="30" width="5" height="5" fill="rgb(0,4,18)"/><rect x="0" y="35" width="5" height="5" fill="rgb(0,4,18)"/><rect x="5" y="35" width="5" height="5" fill="rgb(0,4,18)"/><rect x="10" y="35" width="5" height="5" fill="rgb(0,4,18)"/><rect x="15" y="35" width="5" height="5" fill="rgb(168,126,89)"/><rect x="20" y="35" width="5" height="5" fill="#c8966a"/><rect x="25" y="35" width="5" height="5" fill="#c8966a"/><rect x="30" y="35" width="5" height="5" fill="rgb(176,132,93)"/><rect x="35" y="35" width="5" height="5" fill="rgb(140,105,74)"/><rect x="40" y="35" width="5" height="5" fill="rgb(176,132,93)"/><rect x="45" y="35" width="5" height="5" fill="#c8966a"/><rect x="50" y="35" width="5" height="5" fill="#c8966a"/><rect x="55" y="35" width="5" height="5" fill="#c8966a"/><rect x="60" y="35" width="5" height="5" fill="rgb(168,126,89)"/><rect x="65" y="35" width="5" height="5" fill="rgb(0,4,18)"/><rect x="70" y="35" width="5" height="5" fill="rgb(0,4,18)"/><rect x="75" y="35" width="5" height="5" fill="rgb(0,4,18)"/><rect x="0" y="40" width="5" height="5" fill="rgb(0,4,18)"/><rect x="5" y="40" width="5" height="5" fill="rgb(0,4,18)"/><rect x="10" y="40" width="5" height="5" fill="rgb(0,4,18)"/><rect x="15" y="40" width="5" height="5" fill="rgb(168,126,89)"/><rect x="20" y="40" width="5" height="5" fill="#c8966a"/><rect x="25" y="40" width="5" height="5" fill="#c8966a"/><rect x="30" y="40" width="5" height="5" fill="rgb(99,50,34)"/><rect x="35" y="40" width="5" height="5" fill="#7c3f2a"/><rect x="40" y="40" width="5" height="5" fill="rgb(99,50,34)"/><rect x="45" y="40" width="5" height="5" fill="#c8966a"/><rect x="50" y="40" width="5" height="5" fill="#c8966a"/><rect x="55" y="40" width="5" height="5" fill="#c8966a"/><rect x="60" y="40" width="5" height="5" fill="rgb(168,126,89)"/><rect x="65" y="40" width="5" height="5" fill="rgb(0,4,18)"/><rect x="70" y="40" width="5" height="5" fill="rgb(0,4,18)"/><rect x="75" y="40" width="5" height="5" fill="rgb(0,4,18)"/><rect x="0" y="45" width="5" height="5" fill="rgb(0,4,18)"/><rect x="5" y="45" width="5" height="5" fill="rgb(0,4,18)"/><rect x="10" y="45" width="5" height="5" fill="rgb(0,4,18)"/><rect x="15" y="45" width="5" height="5" fill="rgb(0,4,18)"/><rect x="20" y="45" width="5" height="5" fill="#c8966a"/><rect x="25" y="45" width="5" height="5" fill="#c8966a"/><rect x="30" y="45" width="5" height="5" fill="rgb(176,132,93)"/><rect x="35" y="45" width="5" height="5" fill="rgb(168,126,89)"/><rect x="40" y="45" width="5" height="5" fill="rgb(176,132,93)"/><rect x="45" y="45" width="5" height="5" fill="#c8966a"/><rect x="50" y="45" width="5" height="5" fill="#c8966a"/><rect x="55" y="45" width="5" height="5" fill="#c8966a"/><rect x="60" y="45" width="5" height="5" fill="rgb(0,4,18)"/><rect x="65" y="45" width="5" height="5" fill="rgb(0,4,18)"/><rect x="70" y="45" width="5" height="5" fill="rgb(0,4,18)"/><rect x="75" y="45" width="5" height="5" fill="rgb(0,4,18)"/><rect x="0" y="50" width="5" height="5" fill="rgb(0,4,18)"/><rect x="5" y="50" width="5" height="5" fill="rgb(0,4,18)"/><rect x="10" y="50" width="5" height="5" fill="rgb(0,4,18)"/><rect x="15" y="50" width="5" height="5" fill="rgb(0,4,18)"/><rect x="20" y="50" width="5" height="5" fill="rgb(0,4,18)"/><rect x="25" y="50" width="5" height="5" fill="rgb(0,4,18)"/><rect x="30" y="50" width="5" height="5" fill="rgb(172,129,91)"/><rect x="35" y="50" width="5" height="5" fill="rgb(172,129,91)"/><rect x="40" y="50" width="5" height="5" fill="rgb(172,129,91)"/><rect x="45" y="50" width="5" height="5" fill="rgb(172,129,91)"/><rect x="50" y="50" width="5" height="5" fill="rgb(0,4,18)"/><rect x="55" y="50" width="5" height="5" fill="rgb(0,4,18)"/><rect x="60" y="50" width="5" height="5" fill="rgb(0,4,18)"/><rect x="65" y="50" width="5" height="5" fill="rgb(0,4,18)"/><rect x="70" y="50" width="5" height="5" fill="rgb(0,4,18)"/><rect x="75" y="50" width="5" height="5" fill="rgb(0,4,18)"/><rect x="0" y="55" width="5" height="5" fill="rgb(0,6,27)"/><rect x="5" y="55" width="5" height="5" fill="rgb(0,6,27)"/><rect x="10" y="55" width="5" height="5" fill="rgb(0,6,27)"/><rect x="15" y="55" width="5" height="5" fill="rgb(0,6,27)"/><rect x="20" y="55" width="5" height="5" fill="rgb(0,6,27)"/><rect x="25" y="55" width="5" height="5" fill="#002395"/><rect x="30" y="55" width="5" height="5" fill="#002395"/><rect x="35" y="55" width="5" height="5" fill="#ed2939"/><rect x="40" y="55" width="5" height="5" fill="#ed2939"/><rect x="45" y="55" width="5" height="5" fill="#002395"/><rect x="50" y="55" width="5" height="5" fill="#002395"/><rect x="55" y="55" width="5" height="5" fill="rgb(0,6,27)"/><rect x="60" y="55" width="5" height="5" fill="rgb(0,6,27)"/><rect x="65" y="55" width="5" height="5" fill="rgb(0,6,27)"/><rect x="70" y="55" width="5" height="5" fill="rgb(0,6,27)"/><rect x="75" y="55" width="5" height="5" fill="rgb(0,6,27)"/><rect x="0" y="60" width="5" height="5" fill="rgb(0,6,27)"/><rect x="5" y="60" width="5" height="5" fill="rgb(0,6,27)"/><rect x="10" y="60" width="5" height="5" fill="rgb(0,6,27)"/><rect x="15" y="60" width="5" height="5" fill="rgb(0,6,27)"/><rect x="20" y="60" width="5" height="5" fill="#002395"/><rect x="25" y="60" width="5" height="5" fill="#002395"/><rect x="30" y="60" width="5" height="5" fill="#002395"/><rect x="35" y="60" width="5" height="5" fill="#002395"/><rect x="40" y="60" width="5" height="5" fill="#002395"/><rect x="45" y="60" width="5" height="5" fill="#002395"/><rect x="50" y="60" width="5" height="5" fill="#002395"/><rect x="55" y="60" width="5" height="5" fill="#002395"/><rect x="60" y="60" width="5" height="5" fill="rgb(0,6,27)"/><rect x="65" y="60" width="5" height="5" fill="rgb(0,6,27)"/><rect x="70" y="60" width="5" height="5" fill="rgb(0,6,27)"/><rect x="75" y="60" width="5" height="5" fill="rgb(0,6,27)"/><rect x="0" y="65" width="5" height="5" fill="rgb(0,6,27)"/><rect x="5" y="65" width="5" height="5" fill="rgb(0,6,27)"/><rect x="10" y="65" width="5" height="5" fill="rgb(0,6,27)"/><rect x="15" y="65" width="5" height="5" fill="rgb(0,26,112)"/><rect x="20" y="65" width="5" height="5" fill="#002395"/><rect x="25" y="65" width="5" height="5" fill="#002395"/><rect x="30" y="65" width="5" height="5" fill="#002395"/><rect x="35" y="65" width="5" height="5" fill="rgb(0,23,97)"/><rect x="40" y="65" width="5" height="5" fill="rgb(0,23,97)"/><rect x="45" y="65" width="5" height="5" fill="#002395"/><rect x="50" y="65" width="5" height="5" fill="#002395"/><rect x="55" y="65" width="5" height="5" fill="#002395"/><rect x="60" y="65" width="5" height="5" fill="rgb(0,26,112)"/><rect x="65" y="65" width="5" height="5" fill="rgb(0,6,27)"/><rect x="70" y="65" width="5" height="5" fill="rgb(0,6,27)"/><rect x="75" y="65" width="5" height="5" fill="rgb(0,6,27)"/><rect x="0" y="70" width="5" height="5" fill="rgb(0,6,27)"/><rect x="5" y="70" width="5" height="5" fill="rgb(0,6,27)"/><rect x="10" y="70" width="5" height="5" fill="rgb(0,6,27)"/><rect x="15" y="70" width="5" height="5" fill="rgb(0,26,112)"/><rect x="20" y="70" width="5" height="5" fill="#002395"/><rect x="25" y="70" width="5" height="5" fill="#002395"/><rect x="30" y="70" width="5" height="5" fill="#002395"/><rect x="35" y="70" width="5" height="5" fill="rgb(0,23,97)"/><rect x="40" y="70" width="5" height="5" fill="rgb(0,23,97)"/><rect x="45" y="70" width="5" height="5" fill="#002395"/><rect x="50" y="70" width="5" height="5" fill="#002395"/><rect x="55" y="70" width="5" height="5" fill="#002395"/><rect x="60" y="70" width="5" height="5" fill="rgb(0,26,112)"/><rect x="65" y="70" width="5" height="5" fill="rgb(0,6,27)"/><rect x="70" y="70" width="5" height="5" fill="rgb(0,6,27)"/><rect x="75" y="70" width="5" height="5" fill="rgb(0,6,27)"/><rect x="0" y="75" width="5" height="5" fill="rgb(0,6,27)"/><rect x="5" y="75" width="5" height="5" fill="rgb(0,6,27)"/><rect x="10" y="75" width="5" height="5" fill="rgb(0,6,27)"/><rect x="15" y="75" width="5" height="5" fill="rgb(0,26,112)"/><rect x="20" y="75" width="5" height="5" fill="#002395"/><rect x="25" y="75" width="5" height="5" fill="#002395"/><rect x="30" y="75" width="5" height="5" fill="#002395"/><rect x="35" y="75" width="5" height="5" fill="#002395"/><rect x="40" y="75" width="5" height="5" fill="#002395"/><rect x="45" y="75" width="5" height="5" fill="#002395"/><rect x="50" y="75" width="5" height="5" fill="#002395"/><rect x="55" y="75" width="5" height="5" fill="#002395"/><rect x="60" y="75" width="5" height="5" fill="rgb(0,26,112)"/><rect x="65" y="75" width="5" height="5" fill="rgb(0,6,27)"/><rect x="70" y="75" width="5" height="5" fill="rgb(0,6,27)"/><rect x="75" y="75" width="5" height="5" fill="rgb(0,6,27)"/></svg>